<svg xmlns="http://www.w3.org/2000/svg" version="1.1" xmlns:xlink="http://www.w3.org/1999/xlink" xmlns:svgjs="http://svgjs.dev/svgjs" width="2000" height="843" viewBox="0 0 2000 843"><g transform="matrix(1,0,0,1,-1.212109138095684,-0.9319658773914057)"><svg viewBox="0 0 396 167" data-background-color="#ffffff" preserveAspectRatio="xMidYMid meet" height="843" width="2000" xmlns="http://www.w3.org/2000/svg" xmlns:xlink="http://www.w3.org/1999/xlink"><g id="tight-bounds" transform="matrix(1,0,0,1,0.2399976093429359,0.18493888773346612)"><svg viewBox="0 0 395.52 166.63040660659675" height="166.63040660659675" width="395.52"><g><svg viewBox="0 0 859.3593617199263 362.04338557993725" height="166.63040660659675" width="395.52"><g><rect width="16.32472307018633" height="181.92680125391846" x="404.77976150265533" y="90.0582921630094" fill="#6b7280" opacity="1" stroke-width="0" stroke="transparent" fill-opacity="1" class="rect-o-0" data-fill-palette-color="primary" rx="1%" id="o-0" data-palette-color="#6b7280"></rect></g><g transform="matrix(1,0,0,1,463.8393617199263,90.51084639498431)"><svg viewBox="0 0 395.52 181.02169278996863" height="181.02169278996863" width="395.52"><g id="textblocktransform"><svg viewBox="0 0 395.52 181.02169278996863" height="181.02169278996863" width="395.52" id="textblock"><g><svg viewBox="0 0 395.52 181.02169278996863" height="181.02169278996863" width="395.52"><g transform="matrix(1,0,0,1,0,0)"><svg width="395.52" viewBox="1.399999976158142 -35.900001525878906 82.23999786376953 36.5" height="181.02169278996863" data-palette-color="#6b7280"><path d="M8.25-34.5L13.25-34.5 13.25-7.15Q13.25-3.4 11.45-1.48 9.65 0.45 6.35 0.45L6.35 0.45Q5.65 0.45 4.7 0.38 3.75 0.3 2.88 0.15 2 0 1.4-0.25L1.4-0.25 1.95-3.7 4.45-3.7Q8.25-3.7 8.25-7.3L8.25-7.3 8.25-34.5ZM31.35-25L31.35-25Q37-25 39.52-22.98 42.05-20.95 42.05-17L42.05-17Q42.1-13.7 40.62-11.9 39.15-10.1 35.85-10.1L35.85-10.1 21.75-10.1 21.75-13.55 34.6-13.55Q36.25-13.55 36.75-14.6 37.25-15.65 37.25-17L37.25-17Q37.2-19.25 35.92-20.2 34.65-21.15 31.55-21.15L31.55-21.15Q29-21.15 27.55-20.4 26.1-19.65 25.52-17.8 24.95-15.95 24.95-12.6L24.95-12.6Q24.95-8.85 25.67-6.88 26.4-4.9 28.02-4.15 29.65-3.4 32.35-3.4L32.35-3.4Q34.25-3.4 36.62-3.58 39-3.75 40.95-4L40.95-4 41.45-0.85Q40.25-0.35 38.55-0.03 36.85 0.3 35.05 0.45 33.25 0.6 31.75 0.6L31.75 0.6Q27.45 0.6 24.85-0.7 22.25-2 21.05-4.83 19.85-7.65 19.85-12.25L19.85-12.25Q19.85-17.05 21.05-19.85 22.25-22.65 24.8-23.83 27.35-25 31.35-25ZM57.4-35.9L57.4-35.9Q58.2-35.9 59.5-35.85 60.8-35.8 62.12-35.73 63.45-35.65 64.45-35.5L64.45-35.5 64.05-32.05 59.1-32.05Q56.8-32.05 55.87-31.15 54.95-30.25 54.95-28.1L54.95-28.1 54.95 0 50.1 0 50.1-28.65Q50.1-30.95 50.8-32.55 51.5-34.15 53.1-35.02 54.7-35.9 57.4-35.9ZM50.3-24.4L62.55-24.4 62.55-20.8 45.7-20.8 45.7-24.15 50.3-24.4ZM76.59-35.9L76.59-35.9Q77.39-35.9 78.69-35.85 79.99-35.8 81.32-35.73 82.64-35.65 83.64-35.5L83.64-35.5 83.24-32.05 78.29-32.05Q75.99-32.05 75.07-31.15 74.14-30.25 74.14-28.1L74.14-28.1 74.14 0 69.29 0 69.29-28.65Q69.29-30.95 69.99-32.55 70.69-34.15 72.29-35.02 73.89-35.9 76.59-35.9ZM69.49-24.4L81.74-24.4 81.74-20.8 64.89-20.8 64.89-24.15 69.49-24.4Z" opacity="1" transform="matrix(1,0,0,1,0,0)" fill="#6b7280" class="wordmark-text-0" data-fill-palette-color="primary" id="text-0"></path></svg></g></svg></g></svg></g></svg></g><g><svg viewBox="0 0 362.04488435557073 362.04338557993725" height="362.04338557993725" width="362.04488435557073"><g><svg xmlns="http://www.w3.org/2000/svg" xmlns:xlink="http://www.w3.org/1999/xlink" version="1.0" x="0" y="0" viewBox="4.667734146118164 4.6859588623046875 90.3050308227539 90.30465698242188" enable-background="new 0 0 100 100" xml:space="preserve" height="362.04338557993725" width="362.04488435557073" class="icon-icon-0" data-fill-palette-color="accent" id="icon-0"><path d="M17.504 35.743c-1.334 8.611 0.522 17.134 5.093 23.382 3.514 4.801 8.413 7.905 13.796 8.739 5.677 0.88 11.253-0.429 15.703-3.685 1.248-0.912 2.36-1.946 3.326-3.076-2.222 0.978-4.814 1.267-7.626 0.831-11.717-1.816-19.673-13.464-17.735-25.964 0.934-6.03 4.384-11.497 9.713-15.397 6.768-4.952 15.953-6.97 25.201-5.537 7.474 1.158 17.67 5.964 25.56 15.213 0 0-22.835-39.421-56.115-20.356C23.689 16.04 18.653 28.323 17.504 35.743z" fill="#6b7280" data-fill-palette-color="accent"></path><path d="M82.544 65.256c1.659-8.555 0.125-17.141-4.207-23.557-3.331-4.931-8.109-8.217-13.457-9.253-5.639-1.094-11.261 0.004-15.83 3.091-1.282 0.863-2.431 1.854-3.44 2.947 2.257-0.894 4.859-1.084 7.652-0.543 11.64 2.257 19.151 14.196 16.744 26.616-1.161 5.989-4.815 11.324-10.288 15.019-6.949 4.692-16.205 6.364-25.393 4.582C26.902 82.719 16.894 77.532 9.358 67.992c0 0 21.331 40.255 55.307 22.457C75.621 84.712 81.115 72.628 82.544 65.256z" fill="#6b7280" data-fill-palette-color="accent"></path><path d="M35.726 82.88c8.611 1.334 17.133-0.522 23.381-5.094 4.801-3.514 7.905-8.413 8.74-13.796 0.879-5.676-0.429-11.253-3.686-15.702-0.912-1.248-1.946-2.36-3.076-3.327 0.979 2.222 1.267 4.815 0.831 7.626-1.816 11.717-13.463 19.673-25.965 17.736-6.029-0.934-11.497-4.385-15.395-9.713-4.952-6.768-6.971-15.954-5.538-25.202 1.158-7.474 5.964-17.67 15.213-25.559 0 0-39.421 22.835-20.356 56.115C16.022 76.695 28.305 81.73 35.726 82.88z" fill="#6b7280" data-fill-palette-color="accent"></path><path d="M90.432 35.718c-5.738-10.955-17.822-16.45-25.194-17.879-8.554-1.659-17.141-0.125-23.557 4.208-4.931 3.331-8.217 8.108-9.254 13.456-1.094 5.64 0.004 11.261 3.092 15.83 0.863 1.282 1.854 2.431 2.946 3.441-0.894-2.257-1.084-4.859-0.542-7.652 2.257-11.64 14.196-19.151 26.615-16.744 5.99 1.161 11.324 4.816 15.019 10.289 4.693 6.949 6.363 16.204 4.583 25.392-1.44 7.423-6.626 17.431-16.167 24.966C67.973 91.025 108.228 69.694 90.432 35.718z" fill="#6b7280" data-fill-palette-color="accent"></path></svg></g></svg></g></svg></g><defs></defs></svg><rect width="395.52" height="166.63040660659675" fill="none" stroke="none" visibility="hidden"></rect></g></svg></g></svg>